<svg width="36" height="37" viewBox="0 0 36 37" fill="none" xmlns="http://www.w3.org/2000/svg">
<path d="M17.1173 0.401932L1.36911 7.15114C0.384851 7.57296 -0.163521 8.62753 0.0544217 9.66803C0.272365 10.7085 1.18632 11.4678 2.25494 11.4678V12.0303C2.25494 12.9653 3.0072 13.7176 3.94225 13.7176H32.0639C32.999 13.7176 33.7512 12.9653 33.7512 12.0303V11.4678C34.8199 11.4678 35.7409 10.7156 35.9518 9.66803C36.1627 8.6205 35.6143 7.56593 34.6371 7.15114L18.8889 0.401932C18.3265 0.162898 17.6797 0.162898 17.1173 0.401932ZM9.00415 15.9673H4.50468V29.768C4.4625 29.7891 4.42031 29.8172 4.37813 29.8453L1.00353 32.0951C0.180969 32.6435 -0.191643 33.6699 0.0966042 34.619C0.384852 35.5681 1.26365 36.2149 2.25494 36.2149H33.7512C34.7425 36.2149 35.6143 35.5681 35.9026 34.619C36.1908 33.6699 35.8252 32.6435 34.9956 32.0951L31.621 29.8453C31.5788 29.8172 31.5367 29.7961 31.4945 29.768L31.5015 15.9673H27.002V29.4657H24.1899V15.9673H19.6904V29.4657H16.3158V15.9673H11.8163V29.4657H9.00415V15.9673ZM18.0031 4.71861C18.5998 4.71861 19.172 4.95564 19.5939 5.37754C20.0158 5.79945 20.2528 6.37168 20.2528 6.96835C20.2528 7.56501 20.0158 8.13724 19.5939 8.55915C19.172 8.98106 18.5998 9.21808 18.0031 9.21808C17.4064 9.21808 16.8342 8.98106 16.4123 8.55915C15.9904 8.13724 15.7534 7.56501 15.7534 6.96835C15.7534 6.37168 15.9904 5.79945 16.4123 5.37754C16.8342 4.95564 17.4064 4.71861 18.0031 4.71861Z" fill="#454545"/>
</svg>
