<svg width="65" height="64" viewBox="0 0 65 64" fill="none" xmlns="http://www.w3.org/2000/svg">
<rect x="0.5" width="64" height="64" rx="32" fill="#A90704"/>
<path d="M32.5 44C39.1274 44 44.5 38.6274 44.5 32C44.5 25.3726 39.1274 20 32.5 20C25.8726 20 20.5 25.3726 20.5 32C20.5 38.6274 25.8726 44 32.5 44Z" stroke="#F4F4F4" stroke-width="2"/>
<path d="M32.5007 40.6663C32.8688 40.6663 33.1673 40.3679 33.1673 39.9997C33.1673 39.6315 32.8688 39.333 32.5007 39.333C32.1325 39.333 31.834 39.6315 31.834 39.9997C31.834 40.3679 32.1325 40.6663 32.5007 40.6663Z" fill="#F4F4F4" stroke="#F4F4F4"/>
<path d="M32.5 37.3335V35.4415C32.5 34.1828 33.3053 33.0655 34.5 32.6668C35.0823 32.4727 35.5888 32.1002 35.9478 31.6022C36.3067 31.1043 36.4999 30.506 36.5 29.8922V29.2082C36.5 27.0668 34.7667 25.3335 32.6253 25.3335H32.5C31.4391 25.3335 30.4217 25.7549 29.6716 26.5051C28.9214 27.2552 28.5 28.2726 28.5 29.3335" stroke="#F4F4F4" stroke-width="2"/>
</svg>
