<svg width="16" height="16" viewBox="0 0 16 16" fill="none" xmlns="http://www.w3.org/2000/svg">
<g clip-path="url(#clip0_91_1418)">
<path d="M4.75273 1.1938C5.06211 1.47193 5.08711 1.9438 4.80898 2.25318L2.55898 4.75318C2.42148 4.9063 2.22773 4.99693 2.02148 5.00005C1.81523 5.00318 1.61836 4.92505 1.47148 4.7813L0.218359 3.5313C-0.0722656 3.23755 -0.0722656 2.76255 0.218359 2.4688C0.508984 2.17505 0.987109 2.17505 1.27773 2.4688L1.96836 3.15943L3.69023 1.24693C3.96836 0.937552 4.44023 0.912552 4.74961 1.19068L4.75273 1.1938ZM4.75273 6.1938C5.06211 6.47193 5.08711 6.9438 4.80898 7.25318L2.55898 9.75318C2.42148 9.9063 2.22773 9.99693 2.02148 10.0001C1.81523 10.0032 1.61836 9.92505 1.47148 9.7813L0.218359 8.5313C-0.0753906 8.23755 -0.0753906 7.76255 0.218359 7.47193C0.512109 7.1813 0.987109 7.17818 1.27773 7.47193L1.96836 8.16255L3.69023 6.25005C3.96836 5.94068 4.44023 5.91568 4.74961 6.1938H4.75273ZM6.99961 3.00005C6.99961 2.44693 7.44648 2.00005 7.99961 2.00005H14.9996C15.5527 2.00005 15.9996 2.44693 15.9996 3.00005C15.9996 3.55318 15.5527 4.00005 14.9996 4.00005H7.99961C7.44648 4.00005 6.99961 3.55318 6.99961 3.00005ZM6.99961 8.00005C6.99961 7.44693 7.44648 7.00005 7.99961 7.00005H14.9996C15.5527 7.00005 15.9996 7.44693 15.9996 8.00005C15.9996 8.55318 15.5527 9.00005 14.9996 9.00005H7.99961C7.44648 9.00005 6.99961 8.55318 6.99961 8.00005ZM4.99961 13.0001C4.99961 12.4469 5.44648 12.0001 5.99961 12.0001H14.9996C15.5527 12.0001 15.9996 12.4469 15.9996 13.0001C15.9996 13.5532 15.5527 14.0001 14.9996 14.0001H5.99961C5.44648 14.0001 4.99961 13.5532 4.99961 13.0001ZM1.49961 11.5001C1.89743 11.5001 2.27896 11.6581 2.56027 11.9394C2.84157 12.2207 2.99961 12.6022 2.99961 13.0001C2.99961 13.3979 2.84157 13.7794 2.56027 14.0607C2.27896 14.342 1.89743 14.5001 1.49961 14.5001C1.10178 14.5001 0.720254 14.342 0.438949 14.0607C0.157645 13.7794 -0.000390634 13.3979 -0.000390634 13.0001C-0.000390634 12.6022 0.157645 12.2207 0.438949 11.9394C0.720254 11.6581 1.10178 11.5001 1.49961 11.5001Z" fill="white"/>
</g>
<defs>
<clipPath id="clip0_91_1418">
<rect width="16" height="16" fill="white"/>
</clipPath>
</defs>
</svg>
