<svg width="13" height="12" viewBox="0 0 13 12" fill="none" xmlns="http://www.w3.org/2000/svg">
<g clip-path="url(#clip0_44_113)">
<path d="M9.10742 0C8.80508 0 8.53086 0.182812 8.41367 0.464062C8.29648 0.745312 8.36211 1.06641 8.57539 1.28203L9.5457 2.25L5.57773 6.22031C5.28477 6.51328 5.28477 6.98906 5.57773 7.28203C5.8707 7.575 6.34648 7.575 6.63945 7.28203L10.6074 3.31172L11.5777 4.28203C11.7934 4.49766 12.1145 4.56094 12.3957 4.44375C12.677 4.32656 12.8598 4.05469 12.8598 3.75V0.75C12.8598 0.335156 12.5246 0 12.1098 0L9.10742 0ZM2.73242 0.75C1.69648 0.75 0.857422 1.58906 0.857422 2.625V10.125C0.857422 11.1609 1.69648 12 2.73242 12H10.2324C11.2684 12 12.1074 11.1609 12.1074 10.125V7.5C12.1074 7.08516 11.7723 6.75 11.3574 6.75C10.9426 6.75 10.6074 7.08516 10.6074 7.5V10.125C10.6074 10.3313 10.4387 10.5 10.2324 10.5H2.73242C2.52617 10.5 2.35742 10.3313 2.35742 10.125V2.625C2.35742 2.41875 2.52617 2.25 2.73242 2.25H5.35742C5.77227 2.25 6.10742 1.91484 6.10742 1.5C6.10742 1.08516 5.77227 0.75 5.35742 0.75H2.73242Z" fill="#333333"/>
</g>
<defs>
<clipPath id="clip0_44_113">
<rect width="12" height="12" fill="white" transform="translate(0.857422)"/>
</clipPath>
</defs>
</svg>
