<svg width="36" height="37" viewBox="0 0 36 37" fill="none" xmlns="http://www.w3.org/2000/svg">
<path d="M21.7907 28.3478H14.5012C14.0957 28.3478 14.0957 28.7274 14.0957 28.7274C14.0957 30.2451 16.1218 31.0039 18.1462 31.0039C20.1707 31.0039 22.1957 30.2451 22.1957 28.7274C22.1957 28.7274 22.1962 28.3478 21.7907 28.3478ZM18.1468 27.0203C20.0278 27.0197 20.9683 25.6928 20.0278 25.6928H16.2658C15.3253 25.6928 16.2658 27.0203 18.1468 27.0203ZM17.9994 11.2708C22.4173 11.2708 25.7996 11.0312 28.4017 10.6718C25.655 5.42588 29.3439 -0.328496 25.8041 1.80394C22.8993 3.555 20.0396 4.01344 17.9994 4.01344C15.9592 4.01344 13.1017 3.55613 10.1947 1.80394C6.65547 -0.328496 10.3438 5.42588 7.59766 10.6718C10.1992 11.0312 13.5815 11.2708 17.9994 11.2708Z" fill="#454545"/>
<path d="M34.875 15.7473C34.875 15.0487 34.6269 15.4104 29.7366 12.5799L29.7248 12.5664C29.4716 12.6058 23.2864 13.5772 17.9989 13.5772C12.7114 13.5772 6.52725 12.6058 6.27413 12.5664L6.26231 12.5799C1.37194 15.4104 1.125 15.0482 1.125 15.7473C1.125 15.9678 1.20038 17.2065 4.51125 18.2077C3.24225 21.099 4.16587 24.4852 6.7365 26.3634L6.33656 27.0463L5.76056 26.7183L3.042 31.3483C2.78944 31.2712 2.60494 31.2555 2.55487 31.3404L2.40581 31.5935C2.16394 32.0047 5.44669 33.87 5.68856 33.4577L5.83706 33.2057C5.88712 33.1196 5.77969 32.97 5.58563 32.7928L8.16637 28.3957C9.30375 31.031 11.5284 32.9154 15.4373 34.644C16.0903 34.9325 17.0781 35.0979 18.1462 35.0979C19.2144 35.0979 20.2016 34.9325 20.8553 34.6434C25.8474 32.4345 28.2021 29.8599 28.8714 25.8279C30.0712 25.6215 31.3076 24.8587 31.3076 22.5963C31.3076 20.5438 30.4858 19.9194 29.7855 19.7597C29.7714 19.3877 29.7534 19.0158 29.7315 18.6442C34.776 17.6075 34.875 16.0016 34.875 15.7473ZM5.71725 18.525C6.48731 18.7016 7.39069 18.8653 8.43975 19.007C7.76306 19.4497 7.3125 20.1191 7.3125 21.0123C7.65338 20.1737 8.442 19.6145 9.3825 19.3406C9.05936 19.7413 8.88186 20.2399 8.87906 20.7547C8.87906 22.0322 9.9315 23.0666 11.2292 23.0666C12.528 23.0666 13.5804 22.0316 13.5804 20.7547C13.5804 20.4718 13.5214 20.204 13.4269 19.9526C13.9646 20.3368 14.3983 20.8537 14.6256 21.5253C14.6256 20.6462 14.2892 19.9571 13.7638 19.4492C14.5851 19.484 15.4586 19.5082 16.3896 19.5217C16.572 20.2227 16.6143 20.9527 16.5139 21.67C16.4135 22.3873 16.1724 23.0777 15.8046 23.7017C14.2313 26.3814 10.7477 27.3 8.02406 25.7525C5.44219 24.285 4.473 21.1316 5.71725 18.525ZM7.7265 27.836L7.866 27.5987C7.911 27.7333 7.95825 27.8658 8.00775 27.9963L7.7265 27.836ZM30.1826 22.5963C30.1826 24.0172 29.6134 24.6905 28.3382 24.7788L27.8803 24.8103L27.8207 25.2587C27.2987 29.1534 25.2163 31.5013 20.3946 33.6348C19.8883 33.8582 19.0479 33.992 18.1468 33.992C17.2457 33.992 16.4053 33.8587 15.8991 33.6348C12.0352 31.926 9.96413 30.0838 9.00731 27.4535C11.9818 28.2753 15.255 27.0615 16.8722 24.3075C17.7182 22.8682 17.9959 21.1647 17.6507 19.5313C17.7688 19.5318 17.8796 19.5335 17.9994 19.5335C19.4102 19.5335 20.6933 19.5077 21.8779 19.4627C21.0223 19.889 20.3968 20.6523 20.3968 21.7678C20.5931 21.189 20.9661 20.7446 21.4296 20.4133C21.3429 20.6335 21.2979 20.8679 21.2968 21.1046C21.2968 22.2043 22.2041 23.0958 23.3218 23.0958C24.4412 23.0958 25.3468 22.2043 25.3468 21.1046C25.3468 20.6433 25.1809 20.2243 24.9137 19.8868C25.7237 20.1225 26.4032 20.6034 26.6968 21.3262C26.6968 20.2907 25.9926 19.6033 25.0566 19.2765C25.7832 19.2173 26.5084 19.1425 27.2317 19.052C27.2565 19.3575 27.2812 19.6798 27.306 20.0297C27.3516 21.2565 27.2239 22.1486 27.2227 22.157L27.0669 23.2207L28.0378 22.728C28.1059 22.6931 28.7139 22.3719 29.0396 21.7796C29.1594 21.5608 29.2601 21.2441 29.3456 20.8188H29.3479C29.9014 20.8177 30.1826 21.4168 30.1826 22.5963Z" fill="#454545"/>
</svg>
